<svg viewBox="0 0 100 50" xmlns="http://www.w3.org/2000/svg">
  <!-- Woman silhouette (left) - looking right -->
  <path
    d="M5 50
       L5 42
       C5 40 6 38 8 37
       L10 36
       C11 35.5 12 35 12 34
       L12 32
       C11 31 10 30 10 28
       C10 26 11 25 12 24
       L13 23
       C13.5 22 13 21 13 20
       C13 19 14 18 15 17.5
       C16 17 17 17 18 17
       L20 17
       C21 17 22 16 22 15
       C22 14 21 13 21 12
       C21 11 22 10 23 9.5
       C24 9 25 9 26 9.5
       C27 10 28 11 28 12
       L28 14
       C28 15 27 17 26 18
       C25 19 25 20 25 21
       C25 22 26 23 27 24
       L28 25
       C29 26 29 27 29 28
       C29 30 28 31 27 32
       L26 33
       C25 34 25 35 25 36
       L25 38
       C25 40 26 42 28 44
       L30 47
       C31 48 31 49 31 50
       Z"
    fill="#1f2937"
  />

  <!-- Hair bun -->
  <ellipse cx="24" cy="7" rx="5" ry="4" fill="#1f2937"/>

  <!-- Man silhouette (right) - looking left -->
  <path
    d="M95 50
       L95 42
       C95 40 94 38 92 37
       L90 36
       C89 35.5 88 35 88 34
       L88 32
       C89 31 90 30 90 28
       C90 26 89 25 88 24
       L87 23
       C86.5 22 87 21 87 20
       C87 19 86 18 85 17.5
       C84 17 83 16.5 82 16.5
       C81 16.5 80 17 79 18
       C78 19 77 20 77 21
       C77 22 77 23 77 24
       L77 25
       C76 26 75 27 74 27.5
       C73 28 72 28 71 28
       C70 28 69 27 69 26
       C69 25 70 24 71 23
       L72 22
       C73 21 73 20 73 19
       C73 17 74 15 75 14
       C76 13 77 12 78 11.5
       C79 11 80 11 81 11
       L83 11
       C85 11 87 12 88 14
       C89 16 89 18 88 20
       L87 22
       C87 23 88 24 89 25
       L90 26
       C91 27 92 28 92 30
       C92 32 91 34 90 35
       L88 37
       C87 38 87 40 88 42
       L90 46
       C91 48 92 49 95 50
       Z"
    fill="#1f2937"
  />

  <!-- Man's short hair spikes -->
  <path
    d="M78 11 C78 9 79 7 81 6 C83 5 85 5 87 6 C89 7 90 9 90 11 C90 10 88 8 85 7 C82 6 79 8 78 11 Z"
    fill="#1f2937"
  />
</svg>
