<svg xmlns="http://www.w3.org/2000/svg" viewBox="0 0 24 24" fill="currentColor">
  <rect x="5" y="2" width="14" height="20" rx="1" fill="#aaaaaa"/>
  <path d="M6 2h12a1 1 0 0 1 1 1v18a1 1 0 0 1-1 1H6a1 1 0 0 1-1-1V3a1 1 0 0 1 1-1z" fill="none" stroke="#555555" stroke-width="1"/>
  <rect x="7" y="4.5" width="7" height="1" rx="0.5"/>
  <path d="M7.5 7.5L7 8 8 9 9.5 7.5 9 7 8 8z"/>
  <rect x="10.5" y="7.25" width="6" height="1" rx="0.5"/>
  <path d="M7.5 11L7 11.5 8 12.5 9.5 11 9 10.5 8 11.5z"/>
  <rect x="10.5" y="10.75" width="6" height="1" rx="0.5"/>
  <rect x="7" y="14.25" width="2" height="2" fill="none" stroke="currentColor" stroke-width="0.4"/>
  <rect x="10.5" y="14.25" width="6" height="1" rx="0.5"/>
</svg>
